# xmcd
#
# Track frame offsets:
#	150
#	19355
#	38867
#	55230
#	73460
#	93135
#	112345
#	131827
#	148150
#	166342
#
# Disc length: 2481 seconds
#
# Revision: 1
# Processed by: cddbd v1.5.2PL0 Copyright (c) Steve Scherf et al.
# Submitted via: audiograbber 1.83.01
#
DISCID=9b09af0a
DTITLE=Various Artist - B10
DYEAR=1900
DGENRE=
TTITLE0=Alabama  - Angels Among Us
TTITLE1=Alan Jackson - Gone Country
TTITLE2=Traditional - So Help Me Girl
TTITLE3=Traditional - Wherever You Go
TTITLE4=Traditional - The Keeper Of The Stars
TTITLE5=Alabama - Angels Among Us w vocals
TTITLE6=Alan Jackson - Gone Country w vocals
TTITLE7=Traditional - So Help Me Girl w vocals
TTITLE8=Traditional - Wherever You Go w vocals
TTITLE9=Traditional - The Keeper Of The Stars w vocals
EXTD=All songs are listed, a few still need the artist names
EXTT0=
EXTT1=
EXTT2=
EXTT3=
EXTT4=
EXTT5=
EXTT6=
EXTT7=
EXTT8=
EXTT9=
PLAYORDER=
